HIERARCHY
ROOT Hips
{
  OFFSET 0.0 0.0 0.0
  CHANNELS 6 Xposition Yposition Zposition Yrotation Xrotation Zrotation
  JOINT Chest
  {
    OFFSET 0.0 0.09725 -0.01081
    CHANNELS 3 Yrotation Xrotation Zrotation
    JOINT Chest2
    {
      OFFSET 0.0 0.10781 0.0
      CHANNELS 3 Yrotation Xrotation Zrotation
      JOINT Chest3
      {
        OFFSET 0.0 0.09843 -1e-05
        CHANNELS 3 Yrotation Xrotation Zrotation
        JOINT Chest4
        {
          OFFSET 0.0 0.09832 -1e-05
          CHANNELS 3 Yrotation Xrotation Zrotation
          JOINT Neck
          {
            OFFSET 0.0 0.13778 0.0
            CHANNELS 3 Yrotation Xrotation Zrotation
            JOINT Head
            {
              OFFSET 0.0 0.09154 1e-05
              CHANNELS 3 Yrotation Xrotation Zrotation
              End Site
              {
                OFFSET 0.0 0.17013 0.0
              }
            }
          }
          JOINT RightCollar
          {
            OFFSET -0.02998 0.07724 0.0
            CHANNELS 3 Yrotation Xrotation Zrotation
            JOINT RightShoulder
            {
              OFFSET -0.14002 0.0 0.0
              CHANNELS 3 Yrotation Xrotation Zrotation
              JOINT RightElbow
              {
                OFFSET -0.30004 0.0 0.0
                CHANNELS 3 Yrotation Xrotation Zrotation
                JOINT RightWrist
                {
                  OFFSET -0.24524 0.0 0.0
                  CHANNELS 3 Yrotation Xrotation Zrotation
                  End Site
                  {
                    OFFSET -0.18302 0.0 0.0
                  }
                }
              }
            }
          }
          JOINT LeftCollar
          {
            OFFSET 0.02998 0.07724 0.0
            CHANNELS 3 Yrotation Xrotation Zrotation
            JOINT LeftShoulder
            {
              OFFSET 0.14002 0.0 0.0
              CHANNELS 3 Yrotation Xrotation Zrotation
              JOINT LeftElbow
              {
                OFFSET 0.30004 0.0 0.0
                CHANNELS 3 Yrotation Xrotation Zrotation
                JOINT LeftWrist
                {
                  OFFSET 0.24524 0.0 0.0
                  CHANNELS 3 Yrotation Xrotation Zrotation
                  End Site
                  {
                    OFFSET 0.18302 0.0 0.0
                  }
                }
              }
            }
          }
        }
      }
    }
  }
  JOINT RightHip
  {
    OFFSET -0.07997 2e-05 -0.0
    CHANNELS 3 Yrotation Xrotation Zrotation
    JOINT RightKnee
    {
      OFFSET 0.0 -0.4162 -0.0
      CHANNELS 3 Yrotation Xrotation Zrotation
      JOINT RightAnkle
      {
        OFFSET 0.0 -0.40601 -0.0
        CHANNELS 3 Yrotation Xrotation Zrotation
        JOINT RightToe
        {
          OFFSET 0.0 -0.06581 0.14895
          CHANNELS 3 Yrotation Xrotation Zrotation
          End Site
          {
            OFFSET 0.0 -0.01508 0.06451
          }
        }
      }
    }
  }
  JOINT LeftHip
  {
    OFFSET 0.07997 0.0 -0.0
    CHANNELS 3 Yrotation Xrotation Zrotation
    JOINT LeftKnee
    {
      OFFSET 0.0 -0.4162 -0.0
      CHANNELS 3 Yrotation Xrotation Zrotation
      JOINT LeftAnkle
      {
        OFFSET 0.0 -0.40601 -0.0
        CHANNELS 3 Yrotation Xrotation Zrotation
        JOINT LeftToe
        {
          OFFSET 0.0 -0.06581 0.14895
          CHANNELS 3 Yrotation Xrotation Zrotation
          End Site
          {
            OFFSET 0.0 -0.01508 0.06451
          }
        }
      }
    }
  }
}
MOTION
Frames: 14
Frame Time: 0.016667000268312315
0.00232 0.89887 -0.64304 3.15609 1.54584 0.02553 0.15321 -0.08251 0.7329 0.03498 -5.86268 0.32748 0.03476 -0.04225 0.33103 0.05145 5.80496 0.24955 -1.7589299999999994 -2.91053 0.877200000000002 -4.788830000000004 -5.091929999999998 3.513119999999997 -1.3761 2.50213 7.94024 -9.5953 1.79139 67.05727 50.75887 -14.51955 57.57294 15.84257 -7.89198 -9.07863 1.77026 1.34208 -8.86328 7.00245 0.51323 -67.98312 -54.75799 -10.95303 -50.60649 -22.09779 -22.14244 -11.34496 -2.20249 3.15277 -2.54156 -1.45179 1.47274 -0.7294 -3.5909 -5.9933 1.63009 0.0 0.0 0.0 -0.28954 -2.64368 5.9926 0.3742 3.52974 0.17087 -5.74324 -3.32973 -4.64287 -0.0 -0.0 -0.0
0.00232 0.89888 -0.64322 3.15031 1.54511 0.01967 0.15478 -0.08058 0.7295 0.03583 -5.86182 0.32595 0.03561 -0.04139 0.32959 0.05197 5.80561 0.24847 -1.75873 -2.90979 0.8778600000000019 -4.788730000000001 -5.090499999999999 3.51427 -1.37197 2.50619 7.94193 -9.59584 1.79156 67.05992 50.75973 -14.52081 57.57385 15.84546 -7.88909 -9.08016 1.76797 1.3435 -8.86614 6.99941 0.515 -67.98494 -54.76563 -10.96225 -50.59348 -22.10173 -22.14763 -11.34387 -2.19934 3.13935 -2.53765 -1.45199 1.47441 -0.72603 -3.58652 -5.97999 1.62705 0.0 0.0 0.0 -0.286 -2.65586 5.99865 0.37817 3.53284 0.16861 -5.74786 -3.32034 -4.64233 -0.0 -0.0 0.0
0.00232 0.89889 -0.6434 3.14609 1.54499 0.01319 0.15512 -0.07935 0.72586 0.03614 -5.86127 0.32432 0.03592 -0.04084 0.32799 0.05208 5.80602 0.24727 -1.7586499999999994 -2.90823 0.8785600000000002 -4.788780000000003 -5.087589999999999 3.515439999999998 -1.36847 2.51228 7.94205 -9.58954 1.79249 67.06603 50.76038 -14.52209 57.57225 15.84842 -7.88568 -9.07629 1.76608 1.3461 -8.86905 6.99758 0.51559 -67.98477 -54.77115 -10.96769 -50.58389 -22.10901 -22.15521 -11.34469 -2.19675 3.12475 -2.53299 -1.45158 1.47812 -0.72211 -3.58369 -5.9684 1.6241 0.0 0.0 0.0 -0.27669 -2.66897 6.00587 0.37798 3.53496 0.16564 -5.75563 -3.31006 -4.64185 0.0 0.0 0.0
0.00231 0.8989 -0.64357 3.14253 1.54464 0.00642 0.15477 -0.07835 0.72202 0.03616 -5.86083 0.32261 0.03594 -0.0404 0.32628 0.05197 5.80635 0.24598 -1.7584400000000002 -2.90624 0.8791200000000003 -4.788360000000004 -5.083929999999995 3.5161199999999972 -1.36531 2.51928 7.94136 -9.57989 1.7939 67.07347 50.76089 -14.52317 57.56989 15.8513 -7.8813 -9.06934 1.76399 1.34942 -8.87191 6.996 0.51601 -67.98336 -54.7756 -10.971 -50.57567 -22.11772 -22.16365 -11.34633 -2.19431 3.10966 -2.52819 -1.45072 1.48408 -0.71753 -3.58182 -5.95828 1.62092 0.0 0.0 0.0 -0.26436 -2.68193 6.01362 0.37573 3.53686 0.16233 -5.76498 -3.29966 -4.64132 -0.0 0.0 -0.0
0.00231 0.89892 -0.64374 3.13844 1.54289 -6e-05 0.15471 -0.07797 0.71815 0.03631 -5.86067 0.32088 0.03608 -0.04023 0.32457 0.05195 5.80647 0.24469 -1.7577299999999987 -2.90339 0.8772599999999997 -4.784849999999999 -5.079119999999996 3.51098 -1.36379 2.52471 7.94153 -9.57461 1.79473 67.07878 50.76021 -14.52315 57.57046 15.85304 -7.87626 -9.06363 1.76262 1.35281 -8.87419 6.99454 0.51712 -67.98194 -54.77929 -10.97274 -50.56849 -22.12117 -22.16786 -11.34784 -2.19009 3.09671 -2.52359 -1.45059 1.48912 -0.71349 -3.58038 -5.94775 1.61767 0.0 0.0 0.0 -0.25579 -2.69243 6.02063 0.37529 3.53841 0.15973 -5.77169 -3.29013 -4.64132 0.0 -0.0 0.0
0.00231 0.89893 -0.6439 3.13246 1.53917 -0.00587 0.15579 -0.07846 0.71429 0.03696 -5.86088 0.31916 0.03674 -0.04045 0.32291 0.05231 5.80631 0.24344 -1.7562999999999995 -2.8994299999999997 0.8715499999999992 -4.77666 -5.072959999999995 3.4966599999999985 -1.36462 2.52717 7.94343 -9.57812 1.79463 67.07932 50.75778 -14.52106 57.57722 15.85204 -7.86898 -9.05991 1.76218 1.35569 -8.87523 6.99278 0.51978 -67.98078 -54.78196 -10.97306 -50.56222 -22.11406 -22.16387 -11.34873 -2.18161 3.08681 -2.51963 -1.45169 1.49251 -0.7102 -3.57983 -5.93622 1.61412 0.0 0.0 0.0 -0.25462 -2.69911 6.02626 0.37889 3.53965 0.15823 -5.77275 -3.28215 -4.64231 -0.0 -0.0 0.0
0.00231 0.89894 -0.64406 3.12595 1.53407 -0.01138 0.15716 -0.07957 0.7104 0.03775 -5.86138 0.31742 0.03752 -0.04095 0.32125 0.05277 5.80594 0.24219 -1.754369999999998 -2.89461 0.8634100000000018 -4.765390000000004 -5.065639999999995 3.476519999999997 -1.36709 2.52806 7.94619 -9.58601 1.79396 67.07772 50.75415 -14.51786 57.58691 15.84989 -7.86104 -9.05743 1.76246 1.35865 -8.87569 6.99116 0.52313 -67.97962 -54.78386 -10.97181 -50.55698 -22.10169 -22.15564 -11.34948 -2.17136 3.07905 -2.51588 -1.45352 1.495 -0.70744 -3.57971 -5.9243 1.61049 0.0 0.0 0.0 -0.25721 -2.70332 6.03117 0.38431 3.54055 0.15744 -5.77116 -3.27504 -4.64383 -0.0 0.0 -0.0
0.00232 0.89895 -0.64421 3.12188 1.52812 -0.01701 0.15731 -0.08095 0.70653 0.03799 -5.86199 0.31569 0.03776 -0.04156 0.31955 0.05282 5.80548 0.2409 -1.7521999999999984 -2.88919 0.8549100000000003 -4.7532 -5.05733 3.4552999999999976 -1.3703 2.5291 7.94886 -9.59277 1.79275 67.07851 50.74994 -14.51562 57.59335 15.8503 -7.85753 -9.05827 1.76368 1.36279 -8.87702 6.99083 0.52553 -67.97892 -54.78603 -10.96907 -50.55273 -22.09328 -22.14999 -11.35068 -2.16491 3.07331 -2.51144 -1.45575 1.49569 -0.70566 -3.57805 -5.91192 1.60762 0.0 0.0 -0.0 -0.25934 -2.70678 6.03601 0.38872 3.54085 0.15716 -5.77176 -3.26782 -4.64499 -0.0 -0.0 0.0
0.00232 0.89897 -0.64436 3.12347 1.52124 -0.02285 0.15471 -0.08242 0.70265 0.03701 -5.86265 0.31396 0.03679 -0.04222 0.31771 0.05195 5.80499 0.23952 -1.749679999999998 -2.88308 0.8464100000000023 -4.740130000000001 -5.04777 3.433699999999998 -1.37453 2.53037 7.95142 -9.59614 1.79124 67.08389 50.74483 -14.51531 57.59306 15.85581 -7.86266 -9.06477 1.76594 1.36901 -8.87989 6.99196 0.52584 -67.97866 -54.78938 -10.96402 -50.54919 -22.09362 -22.15052 -11.35307 -2.1665 3.07035 -2.50579 -1.45856 1.49361 -0.70542 -3.57387 -5.89889 1.60627 -0.0 0.0 -0.0 -0.26071 -2.71015 6.04089 0.3909 3.54049 0.15761 -5.7771 -3.26005 -4.64544 0.0 -0.0 0.0
0.00231 0.89897 -0.64451 3.12749 1.51352 -0.02881 0.15088 -0.08417 0.69878 0.03549 -5.86344 0.31223 0.03527 -0.04301 0.31583 0.05067 5.8044 0.2381 -1.7469199999999994 -2.87638 0.8375500000000002 -4.726140000000001 -5.037219999999998 3.4110300000000002 -1.37952 2.53179 7.95388 -9.59839 1.78919 67.09164 50.73913 -14.51595 57.58952 15.86387 -7.87221 -9.07459 1.76914 1.37643 -8.88362 6.99439 0.52518 -67.97885 -54.793 -10.95748 -50.54663 -22.09792 -22.15363 -11.35589 -2.1719 3.06941 -2.49945 -1.46177 1.48974 -0.70616 -3.56814 -5.88541 1.60567 0.0 0.0 0.0 -0.26163 -2.71278 6.04572 0.39207 3.53954 0.15858 -5.78462 -3.25216 -4.64555 -0.0 0.0 -0.0
0.00231 0.89899 -0.64467 3.12731 1.50581 -0.03505 0.14881 -0.08637 0.69502 0.03474 -5.86442 0.31055 0.03453 -0.04399 0.31408 0.04998 5.80366 0.23678 -1.7445299999999975 -2.86971 0.8292800000000007 -4.7134300000000025 -5.026609999999998 3.3899100000000004 -1.38353 2.5348 7.95527 -9.60085 1.78601 67.09969 50.73438 -14.51655 57.58696 15.87053 -7.87867 -9.08279 1.77324 1.38348 -8.88767 6.99878 0.52529 -67.97995 -54.79516 -10.95196 -50.54583 -22.10103 -22.15536 -11.35746 -2.17394 3.06809 -2.49304 -1.46457 1.48614 -0.70676 -3.56187 -5.87198 1.60437 0.0 0.0 0.0 -0.25878 -2.71443 6.05085 0.39319 3.53791 0.15921 -5.79145 -3.24451 -4.64549 -0.0 -0.0 0.0
0.00231 0.899 -0.64481 3.11852 1.49882 -0.04191 0.15028 -0.08955 0.69163 0.03555 -5.86583 0.30904 0.03533 -0.0454 0.31265 0.05047 5.8026 0.2357 -1.7426899999999996 -2.86333 0.8220799999999997 -4.702770000000001 -5.01632 3.3715999999999973 -1.38573 2.54108 7.95461 -9.60454 1.78092 67.10798 50.73177 -14.51719 57.5869 15.87456 -7.87912 -9.08788 1.77901 1.38978 -8.89197 7.0069 0.52681 -67.98294 -54.79433 -10.94873 -50.5483 -22.09992 -22.1527 -11.35763 -2.16861 3.06483 -2.48657 -1.4665 1.48382 -0.70674 -3.55505 -5.85881 1.60153 -0.0 0.0 -0.0 -0.24911 -2.71518 6.05667 0.39447 3.53562 0.15918 -5.79631 -3.23748 -4.64528 -0.0 0.0 -0.0
0.00231 0.89901 -0.64495 3.10551 1.49183 -0.04904 0.15352 -0.09318 0.68836 0.03714 -5.86744 0.30758 0.03692 -0.04701 0.31135 0.05156 5.8014 0.23472 -1.7412199999999984 -2.85698 0.8154700000000012 -4.693390000000001 -5.005969999999998 3.3548399999999994 -1.38697 2.54894 7.95286 -9.60843 1.7747 67.11655 50.73011 -14.51779 57.58782 15.8772 -7.87648 -9.09135 1.78568 1.39572 -8.89658 7.01699 0.52908 -67.98683 -54.79204 -10.94653 -50.55253 -22.09762 -22.14866 -11.35654 -2.15993 3.06118 -2.48003 -1.46802 1.48178 -0.70657 -3.54768 -5.84571 1.59798 -0.0 -0.0 -0.0 -0.23567 -2.71497 6.06279 0.39569 3.53267 0.15882 -5.80048 -3.23069 -4.6449 -0.0 0.0 -0.0
0.0023 0.89902 -0.64509 3.09484 1.48352 -0.05559 0.15621 -0.0959 0.68448 0.03852 -5.86865 0.30585 0.03829 -0.04822 0.30976 0.05247 5.80049 0.23352 -1.7402199999999972 -2.85052 0.8089000000000013 -4.685050000000004 -4.99541 3.3385099999999994 -1.38806 2.55481 7.95196 -9.61084 1.76915 67.12341 50.72736 -14.51724 57.58942 15.87821 -7.87203 -9.0927 1.79099 1.40091 -8.90118 7.02435 0.53189 -67.98922 -54.79105 -10.94399 -50.55476 -22.09807 -22.14834 -11.35294 -2.15276 3.05941 -2.47402 -1.46964 1.47911 -0.70649 -3.54074 -5.83261 1.59475 0.0 0.0 0.0 -0.22433 -2.7133 6.0685 0.39711 3.52897 0.15829 -5.8049 -3.22335 -4.64451 0.0 0.0 0.0
